@startuml
 class01 <|-- class02
 class03 *-- class04
 class05 o-- class06

 class01- class03 : knows >
 class class01 {
    -var01 : Integer
    Time : Date
    #method01()
    +get_var01()
    {method}Without parentheses or Qualifiers
 }
 class class02 {
   -var02 : Float
   Time : Date
   #method01()
   +get_var02()
   {method}Without parentheses or Qualifiers
 }
@enduml